<svg width="278" height="190" viewBox="0 0 278 190" fill="none" xmlns="http://www.w3.org/2000/svg">
<g clip-path="url(#clip0_4_388)">
<path d="M153.172 82.6271H152.131V84.774H153.172V82.6271Z" stroke="#ED1C24" stroke-width="0.75" stroke-miterlimit="10"/>
<path d="M106.318 15H73V53.6441H106.318V15Z" fill="#D1D3D4"/>
<path d="M104.236 18.2203H76.1236V50.4237H104.236V18.2203Z" fill="white"/>
<path d="M101.112 31.1017H78.206V32.1751H101.112V31.1017Z" fill="#D1D3D4"/>
<path d="M101.112 32.1751H78.206V33.2486H101.112V32.1751Z" fill="#D1D3D4"/>
<path d="M101.112 39.6893H78.206V40.7627H101.112V39.6893Z" fill="#D1D3D4"/>
<path d="M92.7828 41.8362H78.206V42.9096H92.7828V41.8362Z" fill="#D1D3D4"/>
<path d="M101.112 34.322H78.206V35.3955H101.112V34.322Z" fill="#D1D3D4"/>
<path d="M101.112 36.4689H78.206V37.5424H101.112V36.4689Z" fill="#D1D3D4"/>
<path d="M97.9888 25.7345H82.3708V26.8079H97.9888V25.7345Z" fill="#D1D3D4"/>
<path d="M101.112 22.5141H78.206V23.5876H101.112V22.5141Z" fill="#D1D3D4"/>
<path d="M97.9888 48.2768C99.1388 48.2768 100.071 47.3156 100.071 46.1299C100.071 44.9442 99.1388 43.983 97.9888 43.983C96.8387 43.983 95.9064 44.9442 95.9064 46.1299C95.9064 47.3156 96.8387 48.2768 97.9888 48.2768Z" fill="#D1D3D4"/>
<path d="M247.924 17.1469C243.599 17.1463 239.372 18.468 235.775 20.9448C232.179 23.4216 229.376 26.9422 227.721 31.0614C226.066 35.1806 225.633 39.7133 226.476 44.0864C227.32 48.4594 229.402 52.4763 232.46 55.6291C235.518 58.7819 239.415 60.9289 243.656 61.7986C247.898 62.6683 252.295 62.2217 256.29 60.5152C260.285 58.8086 263.7 55.9189 266.103 52.2114C268.505 48.5039 269.787 44.1452 269.787 39.6865C269.787 33.7086 267.483 27.9756 263.383 23.7486C259.283 19.5216 253.722 17.1469 247.924 17.1469ZM247.924 57.594C244.489 57.5946 241.13 56.5448 238.273 54.5774C235.417 52.61 233.19 49.8134 231.875 46.5413C230.56 43.2692 230.215 39.6685 230.885 36.1946C231.555 32.7207 233.209 29.5296 235.638 27.0249C238.067 24.5202 241.162 22.8144 244.532 22.1232C247.901 21.4321 251.394 21.7865 254.568 23.1418C257.742 24.4971 260.455 26.7924 262.363 29.7373C264.272 32.6822 265.291 36.1446 265.291 39.6865C265.291 44.4354 263.461 48.9898 260.204 52.3481C256.948 55.7063 252.53 57.5933 247.924 57.594Z" fill="#D1D3D4"/>
<path d="M249.749 29.5463L247.144 40.7476L247.698 40.8894L250.303 29.6881L249.749 29.5463Z" fill="#D1D3D4"/>
<path d="M246.512 39.3341L246.421 39.9246L263.159 42.772L263.25 42.1815L246.512 39.3341Z" fill="#D1D3D4"/>
<path d="M231.783 40.7627C232.07 40.7627 232.303 40.2821 232.303 39.6893C232.303 39.0964 232.07 38.6158 231.783 38.6158C231.495 38.6158 231.262 39.0964 231.262 39.6893C231.262 40.2821 231.495 40.7627 231.783 40.7627Z" fill="#D1D3D4"/>
<path d="M247.401 23.5876C247.688 23.5876 247.921 23.3473 247.921 23.0508C247.921 22.7544 247.688 22.5141 247.401 22.5141C247.113 22.5141 246.88 22.7544 246.88 23.0508C246.88 23.3473 247.113 23.5876 247.401 23.5876Z" fill="#D1D3D4"/>
<path d="M263.019 40.7627C263.306 40.7627 263.539 40.2821 263.539 39.6893C263.539 39.0964 263.306 38.6158 263.019 38.6158C262.731 38.6158 262.498 39.0964 262.498 39.6893C262.498 40.2821 262.731 40.7627 263.019 40.7627Z" fill="#D1D3D4"/>
<path d="M247.401 56.8644C247.688 56.8644 247.921 56.6241 247.921 56.3277C247.921 56.0313 247.688 55.791 247.401 55.791C247.113 55.791 246.88 56.0313 246.88 56.3277C246.88 56.6241 247.113 56.8644 247.401 56.8644Z" fill="#D1D3D4"/>
<path d="M204.871 182.458C204.261 182.458 203.663 182.633 203.135 182.965C202.608 183.296 202.172 183.772 201.87 184.345L195.861 182.619L196.984 186.485H201.415C201.463 187.215 201.708 187.914 202.119 188.495C202.53 189.077 203.089 189.516 203.728 189.759C204.366 190.002 205.057 190.038 205.714 189.862C206.371 189.687 206.967 189.307 207.427 188.771C207.888 188.235 208.194 187.565 208.307 186.843C208.42 186.122 208.336 185.38 208.065 184.709C207.793 184.039 207.347 183.469 206.78 183.069C206.213 182.669 205.551 182.456 204.874 182.458H204.871Z" fill="#D1D3D4"/>
<path d="M151.451 182.458C152.061 182.458 152.66 182.633 153.187 182.965C153.714 183.296 154.15 183.772 154.452 184.345L160.461 182.619L159.338 186.485H154.907C154.859 187.215 154.614 187.914 154.203 188.495C153.792 189.077 153.233 189.516 152.594 189.759C151.956 190.002 151.265 190.038 150.608 189.862C149.951 189.687 149.356 189.307 148.895 188.771C148.434 188.235 148.129 187.565 148.015 186.843C147.902 186.122 147.986 185.38 148.257 184.709C148.529 184.039 148.975 183.469 149.542 183.069C150.109 182.669 150.771 182.456 151.448 182.458H151.451Z" fill="#D1D3D4"/>
<path d="M244.277 90.1412C243.556 90.1412 242.852 90.3616 242.253 90.7744C241.653 91.1872 241.186 91.774 240.91 92.4605C240.635 93.147 240.562 93.9025 240.703 94.6313C240.844 95.3601 241.191 96.0295 241.7 96.5549C242.21 97.0804 242.859 97.4382 243.566 97.5832C244.273 97.7281 245.006 97.6537 245.672 97.3694C246.338 97.085 246.907 96.6035 247.307 95.9856C247.708 95.3678 247.921 94.6414 247.921 93.8983C247.921 92.9021 247.536 91.9469 246.853 91.2425C246.17 90.5381 245.243 90.142 244.277 90.1412ZM244.795 96.0436C244.383 96.0436 243.981 95.9177 243.639 95.682C243.296 95.4463 243.03 95.1112 242.872 94.7193C242.715 94.3273 242.673 93.8959 242.754 93.4798C242.834 93.0636 243.032 92.6814 243.323 92.3814C243.614 92.0814 243.985 91.877 244.389 91.7943C244.792 91.7115 245.211 91.754 245.591 91.9163C245.971 92.0787 246.296 92.3537 246.525 92.7065C246.753 93.0592 246.875 93.474 246.875 93.8983C246.876 94.1801 246.822 94.4593 246.718 94.7197C246.613 94.9801 246.46 95.2168 246.267 95.4161C246.073 95.6153 245.844 95.7733 245.591 95.881C245.339 95.9887 245.068 96.0439 244.795 96.0436Z" fill="#CCCCCC"/>
<path d="M181.285 136.299H175.037V186.751H181.285V136.299Z" fill="#D1D3D4"/>
<path d="M204.996 129.859H151.326C150.621 129.859 150.049 130.446 150.049 131.171V136.061C150.049 136.785 150.621 137.373 151.326 137.373H204.996C205.701 137.373 206.273 136.785 206.273 136.061V131.171C206.273 130.446 205.701 129.859 204.996 129.859Z" fill="#D1D3D4"/>
<path d="M160.461 79.4068C160.461 79.4068 164.575 75.7913 171.05 73.9772C177.526 72.1631 186.398 72.1504 195.861 79.4068H160.461Z" fill="#0071F2"/>
<path d="M173.445 79.4068C173.445 79.4068 170.917 78.2294 170.873 73.968C170.873 73.968 177.744 71.8245 184.302 73.808C184.302 73.808 185.114 77.8871 182.243 79.4068H173.445Z" fill="#F9B499"/>
<path d="M149.864 79.4068H205.417C205.644 79.4068 205.862 79.4978 206.023 79.6598C206.183 79.8219 206.273 80.0416 206.273 80.2708V93.3616H149.008V80.2681C149.008 80.0394 149.099 79.8203 149.259 79.6589C149.42 79.4974 149.637 79.4068 149.864 79.4068Z" fill="#2F2E41"/>
<path opacity="0.2" d="M149.864 79.4068H205.417C205.644 79.4068 205.862 79.4978 206.023 79.6598C206.183 79.8219 206.273 80.0416 206.273 80.2708V93.3616H149.008V80.2681C149.008 80.0394 149.099 79.8203 149.259 79.6589C149.42 79.4974 149.637 79.4068 149.864 79.4068Z" fill="black"/>
<path d="M181.285 67.5989H173.996V74.0395H181.285V67.5989Z" fill="#F9B499"/>
<path d="M153.172 116.977C157.198 116.977 160.461 111.451 160.461 104.633C160.461 97.815 157.198 92.2881 153.172 92.2881C149.147 92.2881 145.884 97.815 145.884 104.633C145.884 111.451 149.147 116.977 153.172 116.977Z" fill="#0071F2"/>
<path d="M203.15 116.977C207.175 116.977 210.438 111.451 210.438 104.633C210.438 97.815 207.175 92.2881 203.15 92.2881C199.125 92.2881 195.861 97.815 195.861 104.633C195.861 111.451 199.125 116.977 203.15 116.977Z" fill="#0071F2"/>
<path d="M177.64 36.4689C183.103 36.4689 187.532 33.345 187.532 29.4915C187.532 25.638 183.103 22.5141 177.64 22.5141C172.178 22.5141 167.749 25.638 167.749 29.4915C167.749 33.345 172.178 36.4689 177.64 36.4689Z" fill="#2F2E41"/>
<path opacity="0.2" d="M172.955 23.6735C172.955 23.6735 186.258 22.2447 185.138 32.9732L185.883 33.2486C185.883 33.2486 189.593 29.9469 185.883 25.5282C185.895 25.5282 181.15 20.2393 172.955 23.6735Z" fill="#231F20"/>
<path d="M278.116 114.831H93.824V115.904H278.116V114.831Z" fill="#CCCCCC"/>
<path opacity="0.2" d="M278.116 114.831H93.824V115.904H278.116V114.831Z" fill="black"/>
<path d="M154.214 119.124C154.486 121.516 154.938 123.882 155.566 126.201C156.097 128.158 156.754 130.077 157.533 131.943C157.699 132.576 158.061 133.135 158.562 133.536C159.064 133.936 159.679 134.153 160.312 134.153H193.534C194.857 134.153 195.611 133.232 196.334 131.867C197.099 130.333 197.738 128.736 198.245 127.092C199.093 124.529 199.689 121.885 200.026 119.198L154.214 119.124Z" fill="#2F2E41"/>
<path opacity="0.2" d="M165.088 134.141C165.088 134.141 160.35 128.53 161.766 123.418H167.74C170.636 123.418 173.455 124.673 175.284 127.028C176.586 128.694 177.499 131.023 176.964 134.153L165.088 134.141Z" fill="black"/>
<path opacity="0.2" d="M190.192 134.141C190.192 134.141 194.931 128.53 193.515 123.418H187.543C184.646 123.418 181.826 124.673 179.997 127.028C178.693 128.694 177.782 131.023 178.317 134.153L190.192 134.141Z" fill="black"/>
<path d="M161.502 180.872L165.31 132.875C165.424 131.447 166.029 130.119 167.002 129.161C167.975 128.202 169.245 127.685 170.553 127.713L171.462 127.732C172.249 127.749 173.025 127.942 173.741 128.299C174.458 128.656 175.1 129.171 175.628 129.81C176.157 130.449 176.56 131.201 176.813 132.017C177.066 132.834 177.164 133.698 177.101 134.558L173.676 181.384L161.502 180.872Z" fill="#2F2E41"/>
<path d="M180.708 182.458L177.136 133.991C177.029 132.548 177.464 131.119 178.352 129.991C179.24 128.864 180.514 128.123 181.917 127.919L182.889 127.776C183.733 127.653 184.592 127.707 185.414 127.936C186.237 128.164 187.004 128.562 187.67 129.105C188.337 129.648 188.887 130.324 189.288 131.092C189.688 131.86 189.931 132.703 190.001 133.57L193.779 180.805L180.708 182.458Z" fill="#2F2E41"/>
<path d="M160.79 178.164H173.667C174.12 178.164 174.569 178.259 174.988 178.445C175.407 178.63 175.788 178.902 176.108 179.244C176.429 179.587 176.683 179.993 176.857 180.441C177.031 180.888 177.12 181.368 177.12 181.852V189.972H157.337V181.852C157.337 181.368 157.426 180.888 157.6 180.441C157.774 179.993 158.028 179.587 158.349 179.244C158.669 178.902 159.05 178.63 159.469 178.445C159.888 178.259 160.337 178.164 160.79 178.164Z" fill="#0071F2"/>
<path opacity="0.38" d="M160.79 178.164H173.667C174.12 178.164 174.569 178.259 174.988 178.445C175.407 178.63 175.788 178.902 176.108 179.244C176.429 179.587 176.683 179.993 176.857 180.441C177.031 180.888 177.12 181.368 177.12 181.852V189.972H157.337V181.852C157.337 181.368 157.426 180.888 157.6 180.441C157.774 179.993 158.028 179.587 158.349 179.244C158.669 178.902 159.05 178.63 159.469 178.445C159.888 178.259 160.337 178.164 160.79 178.164Z" fill="white"/>
<path d="M180.937 178.164H195.168C195.669 178.164 196.166 178.259 196.629 178.445C197.092 178.63 197.513 178.902 197.867 179.244C198.222 179.587 198.503 179.993 198.695 180.441C198.886 180.888 198.985 181.368 198.985 181.852V189.972H177.12V181.852C177.12 181.368 177.219 180.888 177.41 180.441C177.602 179.993 177.883 179.587 178.238 179.244C178.592 178.902 179.013 178.63 179.476 178.445C179.939 178.259 180.435 178.164 180.937 178.164Z" fill="#0071F2"/>
<path d="M164.27 183.28C165.285 182.719 164.664 179.391 162.883 175.848C161.102 172.304 158.836 169.886 157.822 170.448C156.807 171.009 157.429 174.336 159.209 177.88C160.99 181.423 163.256 183.841 164.27 183.28Z" fill="#0071F2"/>
<path opacity="0.38" d="M164.27 183.28C165.285 182.719 164.664 179.391 162.883 175.848C161.102 172.304 158.836 169.886 157.822 170.448C156.807 171.009 157.429 174.336 159.209 177.88C160.99 181.423 163.256 183.841 164.27 183.28Z" fill="white"/>
<path d="M163.758 182.26C164.342 181.937 163.793 179.639 162.531 177.129C161.27 174.618 159.773 172.845 159.189 173.168C158.605 173.491 159.154 175.789 160.415 178.299C161.677 180.81 163.173 182.583 163.758 182.26Z" fill="white"/>
<path d="M176.162 177.786C177.743 174.139 178.178 170.779 177.134 170.281C176.09 169.783 173.962 172.335 172.381 175.982C170.801 179.628 170.365 182.988 171.409 183.486C172.453 183.984 174.581 181.432 176.162 177.786Z" fill="#0071F2"/>
<path opacity="0.38" d="M176.162 177.786C177.743 174.139 178.178 170.779 177.134 170.281C176.09 169.783 173.962 172.335 172.381 175.982C170.801 179.628 170.365 182.988 171.409 183.486C172.453 183.984 174.581 181.432 176.162 177.786Z" fill="white"/>
<path d="M174.98 178.277C176.1 175.694 176.521 173.367 175.919 173.08C175.318 172.793 173.923 174.655 172.803 177.238C171.683 179.822 171.262 182.149 171.863 182.436C172.465 182.722 173.86 180.861 174.98 178.277Z" fill="white"/>
<path d="M241.494 119.124L235.427 189.972H236.855L247.921 119.124H241.494Z" fill="#CCCCCC"/>
<path opacity="0.2" d="M243.826 126.734L236.055 189.972H235.427L241.502 119.124H244.798L243.826 126.734Z" fill="black"/>
<path d="M245.839 119.043L262.283 189.972L263.539 189.515L251.489 116.977L245.839 119.043Z" fill="#CCCCCC"/>
<path opacity="0.2" d="M250.133 125.766L262.498 189.771L261.955 189.972L245.839 119.106L248.678 118.051L250.133 125.766Z" fill="black"/>
<path d="M113.962 119.124L108.401 189.972H109.71L119.854 119.124H113.962Z" fill="#CCCCCC"/>
<path opacity="0.2" d="M115.864 126.737L108.959 189.972H108.401L113.799 119.124H116.73L115.864 126.737Z" fill="black"/>
<path d="M117.772 119.043L135.185 189.972L136.513 189.512L123.754 116.977L117.772 119.043Z" fill="#CCCCCC"/>
<path opacity="0.2" d="M122.334 125.765L135.472 189.768L134.897 189.972L117.772 119.109L120.788 118.051L122.334 125.765Z" fill="black"/>
<path d="M263.539 109.463H232.303V114.831H263.539V109.463Z" fill="#2F2E41"/>
<path opacity="0.2" d="M263.539 112.684H232.303V114.831H263.539V112.684Z" fill="black"/>
<path d="M260.416 106.243H234.386V109.463H260.416V106.243Z" fill="#2F2E41"/>
<path opacity="0.2" d="M260.416 106.243H234.386V109.463H260.416V106.243Z" fill="black"/>
<path d="M263.539 104.096H237.509V106.243H263.539V104.096Z" fill="#2F2E41"/>
<path d="M262.498 101.949H236.468V104.096H262.498V101.949Z" fill="#2F2E41"/>
<path opacity="0.2" d="M262.498 101.949H236.468V104.096H262.498V101.949Z" fill="black"/>
<path d="M256.251 86.9209H244.798V101.949H256.251V86.9209Z" fill="#CCCCCC"/>
<path d="M278.116 115.904H93.824V119.124H278.116V115.904Z" fill="#CCCCCC"/>
<path d="M149.543 80.4803H205.743C205.884 80.4803 206.019 80.5393 206.118 80.6445C206.218 80.7497 206.273 80.8924 206.273 81.0412V114.831H149.008V81.0468C149.007 80.9722 149.02 80.8982 149.047 80.8291C149.074 80.76 149.113 80.6973 149.163 80.6445C149.213 80.5918 149.272 80.5501 149.337 80.5218C149.403 80.4936 149.473 80.4795 149.543 80.4803Z" fill="#2F2E41"/>
<path opacity="0.38" d="M180.937 178.164H195.168C195.669 178.164 196.166 178.259 196.629 178.445C197.092 178.63 197.513 178.902 197.867 179.244C198.222 179.587 198.503 179.993 198.695 180.441C198.886 180.888 198.985 181.368 198.985 181.852V189.972H177.12V181.852C177.12 181.368 177.219 180.888 177.41 180.441C177.602 179.993 177.883 179.587 178.238 179.244C178.592 178.902 179.013 178.63 179.476 178.445C179.939 178.259 180.435 178.164 180.937 178.164Z" fill="white"/>
<path d="M196.626 177.787C198.207 174.141 198.642 170.781 197.598 170.283C196.555 169.784 194.427 172.337 192.846 175.983C191.265 179.63 190.829 182.989 191.873 183.488C192.917 183.986 195.045 181.434 196.626 177.787Z" fill="#0071F2"/>
<path opacity="0.38" d="M196.626 177.787C198.207 174.141 198.642 170.781 197.598 170.283C196.555 169.784 194.427 172.337 192.846 175.983C191.265 179.63 190.829 182.989 191.873 183.488C192.917 183.986 195.045 181.434 196.626 177.787Z" fill="white"/>
<path d="M195.444 178.279C196.564 175.695 196.985 173.369 196.384 173.082C195.782 172.795 194.387 174.656 193.267 177.24C192.147 179.823 191.726 182.15 192.327 182.437C192.929 182.724 194.324 180.862 195.444 178.279Z" fill="white"/>
<path d="M184.731 183.278C185.745 182.717 185.124 179.39 183.343 175.846C181.562 172.302 179.297 169.885 178.282 170.446C177.268 171.007 177.889 174.334 179.67 177.878C181.45 181.422 183.716 183.839 184.731 183.278Z" fill="#0071F2"/>
<path opacity="0.38" d="M184.731 183.278C185.745 182.717 185.124 179.39 183.343 175.846C181.562 172.302 179.297 169.885 178.282 170.446C177.268 171.007 177.889 174.334 179.67 177.878C181.45 181.422 183.716 183.839 184.731 183.278Z" fill="white"/>
<path d="M184.218 182.258C184.802 181.935 184.253 179.638 182.992 177.127C181.73 174.616 180.234 172.843 179.649 173.166C179.065 173.49 179.614 175.787 180.876 178.298C182.137 180.808 183.634 182.581 184.218 182.258Z" fill="white"/>
<path opacity="0.2" d="M244.798 86.9209H246.758C246.758 86.9209 246.353 91.7232 247.543 95.0619C247.848 95.897 248.387 96.6144 249.087 97.1189C249.788 97.6234 250.617 97.8912 251.464 97.8869H256.251V101.949H244.798V86.9209Z" fill="black"/>
<path d="M95.9914 108.43C95.9914 108.43 94.5332 85.3525 118.459 91.0442L132.751 99.1763L133.44 108.919H136.868C137.602 108.919 138.306 109.226 138.826 109.773C139.345 110.319 139.637 111.061 139.637 111.834C139.637 112.607 139.345 113.349 138.826 113.895C138.306 114.442 137.602 114.749 136.868 114.749H93.7289C93.7289 114.749 89.8973 122.098 98.7392 122.718C98.7392 122.718 95.2003 127.16 99.1321 129.859C99.1321 129.859 86.0262 130.067 86.5509 118.062C86.5536 118.056 87.3394 109.294 95.9914 108.43Z" fill="#2F2E41"/>
<path d="M100.071 129.859C101.796 129.859 103.195 128.177 103.195 126.102C103.195 124.027 101.796 122.345 100.071 122.345C98.3461 122.345 96.9476 124.027 96.9476 126.102C96.9476 128.177 98.3461 129.859 100.071 129.859Z" fill="#3F3D56"/>
<path opacity="0.2" d="M100.071 129.859C101.796 129.859 103.195 128.177 103.195 126.102C103.195 124.027 101.796 122.345 100.071 122.345C98.3461 122.345 96.9476 124.027 96.9476 126.102C96.9476 128.177 98.3461 129.859 100.071 129.859Z" fill="black"/>
<path opacity="0.2" d="M99.03 95.8161C99.03 95.8161 100.48 103.54 103.802 104.071C103.993 104.114 104.19 104.101 104.375 104.034C104.559 103.966 104.724 103.846 104.851 103.685C105.084 103.402 105.23 103.047 105.267 102.669C105.305 102.291 105.233 101.91 105.061 101.579C104.167 99.7665 102.09 95.1624 102.439 92.2881C102.462 92.2824 100.181 93.7895 99.03 95.8161Z" fill="black"/>
<path opacity="0.2" d="M103.195 91.2979C103.195 91.2979 103.573 96.8525 107.323 100.38C107.613 100.644 107.988 100.814 108.391 100.862C108.794 100.91 109.203 100.834 109.555 100.646C109.97 100.427 110.276 100.067 110.41 99.6422C110.543 99.2176 110.493 98.7618 110.271 98.3706C109.149 96.4159 107.317 92.8419 107.164 90.1412C105.78 90.3161 104.438 90.7072 103.195 91.2979Z" fill="black"/>
<path opacity="0.2" d="M110.483 90.1869C110.483 90.1869 111.331 95.7602 113.264 98.2176C113.462 98.4631 113.716 98.6301 113.994 98.6966C114.271 98.7631 114.559 98.7261 114.819 98.5903C115.008 98.4942 115.179 98.349 115.317 98.1647C115.456 97.9805 115.56 97.7617 115.623 97.5236C115.685 97.2855 115.704 97.0337 115.678 96.7858C115.652 96.5379 115.582 96.2998 115.473 96.0881C114.598 94.4068 113.446 91.8233 113.579 90.2346C112.55 90.1288 111.515 90.1129 110.483 90.1869Z" fill="black"/>
<path d="M130.266 109.463C136.591 109.463 141.719 104.657 141.719 98.7288C141.719 92.8003 136.591 87.9943 130.266 87.9943C123.941 87.9943 118.813 92.8003 118.813 98.7288C118.813 104.657 123.941 109.463 130.266 109.463Z" fill="#2F2E41"/>
<path opacity="0.2" d="M130.266 109.463C136.591 109.463 141.719 104.657 141.719 98.7288C141.719 92.8003 136.591 87.9943 130.266 87.9943C123.941 87.9943 118.813 92.8003 118.813 98.7288C118.813 104.657 123.941 109.463 130.266 109.463Z" fill="black"/>
<path d="M142.198 97.6554L142.758 85.1885C142.779 84.7284 142.676 84.2715 142.461 83.8703C142.246 83.4692 141.927 83.1401 141.542 82.921C141.093 82.6657 140.576 82.5731 140.072 82.6575C139.568 82.7418 139.104 82.9985 138.752 83.3877L134.431 88.1712C134.431 88.1712 141.802 90.273 142.198 97.6554Z" fill="#2F2E41"/>
<path d="M137.554 89.5507C137.554 89.5507 138.453 87.1415 139.056 86.9267C139.108 86.9124 139.163 86.9247 139.21 86.9618C139.257 86.9989 139.295 87.0587 139.317 87.1316C139.465 87.5809 139.762 88.9385 139.578 92.2881C139.578 92.2832 138.488 90.1653 137.554 89.5507Z" fill="white"/>
<path d="M127.142 88.3789C127.142 88.3789 124.1 85.0701 121.809 83.1829C120.51 82.1082 118.365 82.6639 117.949 84.2323C117.824 84.7326 117.765 85.245 117.772 85.7584L118.381 96.5819C118.381 96.5819 119.375 90.7794 127.142 88.3789Z" fill="#2F2E41"/>
<path d="M120.895 92.2881C120.895 92.2881 120.927 88.3235 121.293 87.165C121.309 87.1172 121.334 87.0733 121.368 87.0361C121.401 86.999 121.443 86.9695 121.489 86.9496C121.535 86.9298 121.584 86.92 121.634 86.921C121.684 86.9219 121.734 86.9337 121.779 86.9553C122.313 87.2091 122.789 87.5723 123.174 88.0217C123.56 88.4711 123.848 88.9966 124.019 89.5643C124.019 89.5643 121.781 90.895 120.895 92.2881Z" fill="white"/>
<path d="M126.319 100.876H125.884C125.389 100.875 124.915 100.649 124.566 100.246C124.216 99.8436 124.019 99.298 124.019 98.7288H124.361C124.361 99.1938 124.522 99.6395 124.807 99.9686C125.093 100.298 125.48 100.483 125.884 100.485H126.319C126.723 100.484 127.11 100.299 127.396 99.9695C127.682 99.6404 127.843 99.1943 127.844 98.7288H128.184C128.183 99.298 127.986 99.8436 127.637 100.246C127.287 100.649 126.813 100.875 126.319 100.876Z" fill="white"/>
<path d="M136.256 100.876H135.714C135.098 100.875 134.507 100.649 134.071 100.246C133.635 99.8436 133.39 99.298 133.39 98.7288H133.828C133.829 99.1942 134.029 99.6404 134.386 99.9695C134.742 100.299 135.225 100.484 135.729 100.485H136.271C136.775 100.484 137.258 100.299 137.614 99.9695C137.971 99.6404 138.171 99.1942 138.172 98.7288H138.596C138.595 99.0118 138.534 99.2919 138.416 99.5531C138.298 99.8143 138.126 100.051 137.909 100.251C137.691 100.45 137.433 100.608 137.15 100.715C136.866 100.823 136.562 100.877 136.256 100.876Z" fill="white"/>
<path opacity="0.2" d="M130.787 103.023C131.649 103.023 132.348 102.782 132.348 102.486C132.348 102.189 131.649 101.949 130.787 101.949C129.924 101.949 129.225 102.189 129.225 102.486C129.225 102.782 129.924 103.023 130.787 103.023Z" fill="black"/>
<path d="M167.228 186.751C168.091 186.751 168.79 186.511 168.79 186.215C168.79 185.918 168.091 185.678 167.228 185.678C166.366 185.678 165.667 185.918 165.667 186.215C165.667 186.511 166.366 186.751 167.228 186.751Z" fill="#0071F2"/>
<path d="M187.532 186.751C188.107 186.751 188.573 186.511 188.573 186.215C188.573 185.918 188.107 185.678 187.532 185.678C186.957 185.678 186.491 185.918 186.491 186.215C186.491 186.511 186.957 186.751 187.532 186.751Z" fill="#0071F2"/>
<path d="M173.996 69.7458V67.5989H180.243C180.243 67.5989 179.863 69.5759 173.996 69.7458Z" fill="#F4A48E"/>
<path d="M163.128 54.0415C163.128 54.0415 157.073 47.0262 163.209 39.1517C165.562 36.1525 168.787 33.9898 172.42 32.9736C176.588 31.8026 182.764 31.4414 190.069 35.2993C190.069 35.2993 199.831 40.4979 196.02 55.3685C196.02 55.3685 193.446 65.6124 188.585 70.8192C188.585 70.8192 194.128 54.1728 187.681 47.1384C187.681 47.1384 188.558 49.3272 188.338 50.2903C188.338 50.2903 184.715 43.472 181.859 42.5226C181.859 42.5226 183.231 44.0876 183.451 45.4885C183.451 45.4885 178.475 39.9726 172.753 40.7168C172.753 40.7168 170.037 41.3132 167.243 44.5145C165.329 46.762 164.028 49.482 163.469 52.4026C163.372 52.8759 163.26 53.4204 163.128 54.0415Z" fill="#2F2E41"/>
<path d="M177.64 68.6723C185.403 68.6723 191.697 62.1842 191.697 54.1808C191.697 46.1773 185.403 39.6893 177.64 39.6893C169.877 39.6893 163.584 46.1773 163.584 54.1808C163.584 62.1842 169.877 68.6723 177.64 68.6723Z" fill="#F9B499"/>
<path d="M162.543 56.8644C163.693 56.8644 164.625 55.4226 164.625 53.6441C164.625 51.8655 163.693 50.4237 162.543 50.4237C161.393 50.4237 160.461 51.8655 160.461 53.6441C160.461 55.4226 161.393 56.8644 162.543 56.8644Z" fill="#F9B499"/>
<path opacity="0.2" d="M162.818 53.6441C162.818 53.6441 160.279 50.6836 160.471 45.2268C160.471 45.2268 160.572 40.6844 164.739 36.4689L165.667 37.5345C165.667 37.5345 159.526 42.1564 162.818 53.6441Z" fill="#231F20"/>
<path opacity="0.2" d="M188.169 50.2456C184.631 43.5906 181.597 42.5428 181.597 42.5428C182.321 43.4315 182.865 44.4506 183.2 45.5443C179.327 41.4514 174.731 40.8402 174.731 40.8402C171.909 40.0871 169.422 42.0544 169.422 42.0544L166.306 38.6355L164.625 37.0174C164.625 37.0174 172.54 28.698 186.508 33.8686C186.508 33.8686 194.67 35.8987 196.479 44.592C196.479 44.592 198.072 50.2211 195.079 58.6088C195.079 58.6088 192.114 67.4194 188.463 70.8192C188.463 70.8192 190.964 63.7003 190.681 55.8856C190.681 55.8856 190.626 50.4148 187.48 47.176C187.48 47.1623 188.337 48.9059 188.169 50.2456Z" fill="#231F20"/>
</g>
<defs>
<clipPath id="clip0_4_388">
<rect width="278" height="190" fill="white"/>
</clipPath>
</defs>
</svg>
