<svg width="80" height="80" viewBox="0 0 80 80" fill="none" xmlns="http://www.w3.org/2000/svg">
<mask id="path-1-inside-1_1_59" fill="white">
<path d="M46.5287 5.60785C47.0431 2.89832 45.261 0.251652 42.5085 0.0786912C35.81 -0.342228 29.0843 0.928079 22.9635 3.80942C15.3301 7.40282 9.02831 13.3179 4.95934 20.7088C0.890368 28.0996 -0.737442 36.5879 0.308674 44.9597C1.35479 53.3315 5.02126 61.1582 10.7838 67.3206C16.5463 73.4829 24.1099 77.6654 32.3928 79.27C40.6758 80.8745 49.254 79.8189 56.9008 76.2541C64.5476 72.6894 70.8715 66.798 74.9681 59.4224C78.253 53.5083 79.971 46.8828 79.9997 40.1712C80.0115 37.4133 77.4901 35.4579 74.7522 35.7896C72.0143 36.1213 70.1076 38.6198 69.9812 41.3748C69.7699 45.9819 68.4983 50.5021 66.2372 54.5729C63.1634 60.107 58.4185 64.5274 52.681 67.2021C46.9434 69.8768 40.507 70.6688 34.2922 69.4649C28.0774 68.261 22.4023 65.1228 18.0786 60.4991C13.7549 55.8754 11.0038 50.0029 10.2189 43.7213C9.434 37.4398 10.6554 31.071 13.7084 25.5254C16.7614 19.9799 21.4897 15.5418 27.2172 12.8456C31.4304 10.8623 36.0256 9.89625 40.6365 9.99404C43.3938 10.0525 46.0144 8.31738 46.5287 5.60785Z"/>
</mask>
<path d="M46.5287 5.60785C47.0431 2.89832 45.261 0.251652 42.5085 0.0786912C35.81 -0.342228 29.0843 0.928079 22.9635 3.80942C15.3301 7.40282 9.02831 13.3179 4.95934 20.7088C0.890368 28.0996 -0.737442 36.5879 0.308674 44.9597C1.35479 53.3315 5.02126 61.1582 10.7838 67.3206C16.5463 73.4829 24.1099 77.6654 32.3928 79.27C40.6758 80.8745 49.254 79.8189 56.9008 76.2541C64.5476 72.6894 70.8715 66.798 74.9681 59.4224C78.253 53.5083 79.971 46.8828 79.9997 40.1712C80.0115 37.4133 77.4901 35.4579 74.7522 35.7896C72.0143 36.1213 70.1076 38.6198 69.9812 41.3748C69.7699 45.9819 68.4983 50.5021 66.2372 54.5729C63.1634 60.107 58.4185 64.5274 52.681 67.2021C46.9434 69.8768 40.507 70.6688 34.2922 69.4649C28.0774 68.261 22.4023 65.1228 18.0786 60.4991C13.7549 55.8754 11.0038 50.0029 10.2189 43.7213C9.434 37.4398 10.6554 31.071 13.7084 25.5254C16.7614 19.9799 21.4897 15.5418 27.2172 12.8456C31.4304 10.8623 36.0256 9.89625 40.6365 9.99404C43.3938 10.0525 46.0144 8.31738 46.5287 5.60785Z" stroke="#6FD0D7" stroke-width="20" mask="url(#path-1-inside-1_1_59)"/>
</svg>
