<svg width="19" height="28" viewBox="0 0 19 28" fill="none" xmlns="http://www.w3.org/2000/svg">
<path d="M9.28301 26.1745C2.98792 28.4447 1.13805 25.4988 1 23.742C1 18.8118 6.10941 18.8586 8.86886 19.571V2.66122C8.86886 1.03961 9.69716 0.904479 10.1113 1.03961C11.1053 2.01257 12.0104 3.41795 12.8387 4.49902C16.1519 5.47198 17.5324 7.87736 17.8085 8.95843C18.4711 11.8773 18.2501 15.1644 17.5 17C16.8374 18.6216 17.5 21.7342 17 21C16.3374 20.027 15.9094 18.8772 15.9094 16.8502C15.9094 14.58 13.6566 12.4459 12 11.5V21.5C12 24.0946 10.2578 25.8229 9.28301 26.1745Z" stroke="#FF6967" stroke-width="1.5"/>
</svg>
