<svg width="32" height="32" viewBox="0 0 32 32" fill="none" xmlns="http://www.w3.org/2000/svg">
<circle cx="16" cy="16" r="12.25" stroke="#5372E7" stroke-width="1.5"/>
<path d="M12.7816 15.1827L16 12.8621L19.2184 15.1827L18.2528 19.3125H13.7471L12.7816 15.1827Z" stroke="#5372E7" stroke-width="1.5"/>
<path d="M20.0624 4.13333L15.9999 7.0625L11.9374 4.13333" stroke="#5372E7" stroke-width="1.5"/>
<path d="M26.2613 23.2123L21.2529 23.2305L19.688 27.9881" stroke="#5372E7" stroke-width="1.5"/>
<path d="M12.3113 27.9882L10.7464 23.2305L5.73804 23.2124" stroke="#5372E7" stroke-width="1.5"/>
<path d="M5.9695 8.46931L7.49992 13.2381L3.45873 16.1966" stroke="#5372E7" stroke-width="1.5"/>
<path d="M28.5413 16.1966L24.5001 13.2381L26.0305 8.46929" stroke="#5372E7" stroke-width="1.5"/>
<path d="M16 7.0625V12.7499" stroke="#5372E7" stroke-width="1.5"/>
<path d="M19.25 15.1875L24.9375 13.1562" stroke="#5372E7" stroke-width="1.5"/>
<path d="M18.4234 19.6562L21.2671 23.3125" stroke="#5372E7" stroke-width="1.5"/>
<path d="M13.5625 19.25L10.7047 23.3125" stroke="#5372E7" stroke-width="1.5"/>
<path d="M12.75 15.1875L7.45465 13.1562" stroke="#5372E7" stroke-width="1.5"/>
</svg>
