<svg width="52" height="16" viewBox="0 0 52 16" fill="none" xmlns="http://www.w3.org/2000/svg">
<path d="M8.30663 14.2133C11.5688 14.2133 14.2133 11.5688 14.2133 8.30666C14.2133 5.0445 11.5688 2.4 8.30663 2.4C5.04447 2.4 2.39996 5.0445 2.39996 8.30666C2.39996 11.5688 5.04447 14.2133 8.30663 14.2133Z" stroke="#21BDCA" stroke-width="1.5" stroke-miterlimit="10" stroke-linecap="round" stroke-linejoin="round"/>
<path d="M8.3067 5.08V8.30667L10.2934 9.25334" stroke="#21BDCA" stroke-width="1.5" stroke-miterlimit="10" stroke-linecap="round" stroke-linejoin="round"/>
<path d="M25.904 11.172C26.048 11.172 26.16 11.208 26.24 11.28C26.32 11.352 26.36 11.452 26.36 11.58C26.36 11.716 26.32 11.82 26.24 11.892C26.168 11.964 26.056 12 25.904 12H21.932C21.78 12 21.664 11.964 21.584 11.892C21.512 11.82 21.476 11.716 21.476 11.58C21.476 11.452 21.516 11.352 21.596 11.28C21.676 11.208 21.788 11.172 21.932 11.172H23.42V4.74L22.112 5.592C22.048 5.632 21.984 5.652 21.92 5.652C21.808 5.652 21.708 5.6 21.62 5.496C21.54 5.392 21.5 5.28 21.5 5.16C21.5 4.992 21.564 4.872 21.692 4.8L23.516 3.612C23.652 3.524 23.792 3.48 23.936 3.48C24.072 3.48 24.184 3.524 24.272 3.612C24.36 3.7 24.404 3.824 24.404 3.984V11.172H25.904ZM31.1433 6.684C31.6553 6.684 32.1113 6.796 32.5113 7.02C32.9113 7.244 33.2233 7.56 33.4473 7.968C33.6713 8.376 33.7833 8.844 33.7833 9.372C33.7833 9.892 33.6673 10.36 33.4353 10.776C33.2033 11.192 32.8793 11.516 32.4633 11.748C32.0473 11.98 31.5793 12.096 31.0593 12.096C30.0353 12.096 29.2433 11.74 28.6833 11.028C28.1313 10.316 27.8553 9.3 27.8553 7.98C27.8553 7.036 27.9833 6.224 28.2393 5.544C28.4953 4.864 28.8673 4.344 29.3553 3.984C29.8433 3.624 30.4233 3.444 31.0953 3.444C31.5513 3.444 32.0033 3.532 32.4513 3.708C32.9073 3.884 33.2953 4.124 33.6153 4.428C33.7513 4.556 33.8193 4.692 33.8193 4.836C33.8193 4.956 33.7873 5.056 33.7233 5.136C33.6593 5.216 33.5833 5.256 33.4953 5.256C33.3833 5.256 33.2673 5.212 33.1473 5.124C32.4513 4.556 31.7753 4.272 31.1193 4.272C30.4073 4.272 29.8513 4.596 29.4513 5.244C29.0513 5.892 28.8513 6.8 28.8513 7.968V8.124C29.0353 7.676 29.3313 7.324 29.7393 7.068C30.1553 6.812 30.6233 6.684 31.1433 6.684ZM31.0113 11.268C31.5553 11.268 31.9913 11.096 32.3193 10.752C32.6473 10.408 32.8113 9.952 32.8113 9.384C32.8113 8.816 32.6433 8.364 32.3073 8.028C31.9793 7.684 31.5433 7.512 30.9993 7.512C30.4473 7.512 29.9953 7.688 29.6433 8.04C29.2993 8.384 29.1273 8.832 29.1273 9.384C29.1273 9.944 29.2993 10.4 29.6433 10.752C29.9953 11.096 30.4513 11.268 31.0113 11.268ZM35.7589 7.38C35.5669 7.38 35.4069 7.32 35.2789 7.2C35.1509 7.072 35.0869 6.908 35.0869 6.708C35.0869 6.508 35.1509 6.348 35.2789 6.228C35.4069 6.1 35.5669 6.036 35.7589 6.036C35.9429 6.036 36.0949 6.1 36.2149 6.228C36.3429 6.348 36.4069 6.508 36.4069 6.708C36.4069 6.908 36.3429 7.072 36.2149 7.2C36.0949 7.32 35.9429 7.38 35.7589 7.38ZM35.7589 12.06C35.5669 12.06 35.4069 12 35.2789 11.88C35.1509 11.752 35.0869 11.588 35.0869 11.388C35.0869 11.188 35.1509 11.024 35.2789 10.896C35.4069 10.768 35.5669 10.704 35.7589 10.704C35.9429 10.704 36.0949 10.768 36.2149 10.896C36.3429 11.024 36.4069 11.188 36.4069 11.388C36.4069 11.588 36.3429 11.752 36.2149 11.88C36.0949 12 35.9429 12.06 35.7589 12.06ZM41.8491 7.656C42.3611 7.8 42.7491 8.048 43.0131 8.4C43.2851 8.752 43.4211 9.188 43.4211 9.708C43.4211 10.444 43.1731 11.024 42.6771 11.448C42.1811 11.872 41.5051 12.084 40.6491 12.084C40.1291 12.084 39.6291 11.996 39.1491 11.82C38.6771 11.644 38.2771 11.404 37.9491 11.1C37.8211 10.98 37.7571 10.844 37.7571 10.692C37.7571 10.572 37.7891 10.472 37.8531 10.392C37.9171 10.312 37.9931 10.272 38.0811 10.272C38.1931 10.272 38.3051 10.316 38.4171 10.404C38.7851 10.7 39.1451 10.916 39.4971 11.052C39.8491 11.188 40.2291 11.256 40.6371 11.256C41.2291 11.256 41.6771 11.12 41.9811 10.848C42.2931 10.576 42.4491 10.184 42.4491 9.672C42.4491 8.64 41.8011 8.124 40.5051 8.124H39.8691C39.7411 8.124 39.6371 8.084 39.5571 8.004C39.4851 7.916 39.4491 7.816 39.4491 7.704C39.4491 7.592 39.4851 7.496 39.5571 7.416C39.6371 7.336 39.7411 7.296 39.8691 7.296H40.3131C40.9371 7.296 41.4171 7.16 41.7531 6.888C42.0891 6.608 42.2571 6.208 42.2571 5.688C42.2571 5.232 42.1211 4.884 41.8491 4.644C41.5771 4.396 41.1931 4.272 40.6971 4.272C40.3211 4.272 39.9571 4.344 39.6051 4.488C39.2531 4.624 38.9011 4.836 38.5491 5.124C38.4371 5.212 38.3251 5.256 38.2131 5.256C38.1251 5.256 38.0491 5.216 37.9851 5.136C37.9211 5.056 37.8891 4.956 37.8891 4.836C37.8891 4.684 37.9531 4.548 38.0811 4.428C38.4091 4.124 38.8051 3.884 39.2691 3.708C39.7411 3.532 40.2251 3.444 40.7211 3.444C41.4891 3.444 42.1011 3.64 42.5571 4.032C43.0131 4.424 43.2371 4.952 43.2291 5.616C43.2211 6.096 43.0931 6.516 42.8451 6.876C42.6051 7.236 42.2731 7.496 41.8491 7.656ZM48.2404 6.696C48.7764 6.696 49.2444 6.808 49.6444 7.032C50.0524 7.256 50.3644 7.572 50.5804 7.98C50.8044 8.38 50.9164 8.844 50.9164 9.372C50.9164 9.9 50.7964 10.372 50.5564 10.788C50.3164 11.196 49.9804 11.516 49.5484 11.748C49.1244 11.972 48.6324 12.084 48.0724 12.084C47.5764 12.084 47.0924 11.996 46.6204 11.82C46.1484 11.644 45.7484 11.404 45.4204 11.1C45.2924 10.98 45.2284 10.844 45.2284 10.692C45.2284 10.572 45.2604 10.472 45.3244 10.392C45.3884 10.312 45.4644 10.272 45.5524 10.272C45.6644 10.272 45.7764 10.316 45.8884 10.404C46.2404 10.692 46.5924 10.908 46.9444 11.052C47.2964 11.188 47.6644 11.256 48.0484 11.256C48.6404 11.256 49.1044 11.088 49.4404 10.752C49.7764 10.416 49.9444 9.96 49.9444 9.384C49.9444 8.824 49.7764 8.372 49.4404 8.028C49.1044 7.684 48.6524 7.512 48.0844 7.512C47.3564 7.512 46.7644 7.792 46.3084 8.352C46.1964 8.472 46.0604 8.532 45.9004 8.532C45.7884 8.532 45.6924 8.5 45.6124 8.436C45.5404 8.364 45.5044 8.268 45.5044 8.148V4.008C45.5044 3.872 45.5444 3.76 45.6244 3.672C45.7124 3.584 45.8324 3.54 45.9844 3.54H50.2084C50.3524 3.54 50.4644 3.576 50.5444 3.648C50.6324 3.72 50.6764 3.82 50.6764 3.948C50.6764 4.076 50.6324 4.176 50.5444 4.248C50.4644 4.32 50.3524 4.356 50.2084 4.356H46.4764V7.368C46.7004 7.152 46.9604 6.988 47.2564 6.876C47.5604 6.756 47.8884 6.696 48.2404 6.696Z" fill="#21BDCA"/>
</svg>
