<svg width="391" height="306" viewBox="0 0 391 306" fill="none" xmlns="http://www.w3.org/2000/svg">
<path d="M311.702 241.42H0V241.576H311.702V241.42Z" fill="#EBEBEB"/>
<path d="M280.473 251.465H259.827V251.62H280.473V251.465Z" fill="#EBEBEB"/>
<path d="M206.489 253.162H201.071V253.318H206.489V253.162Z" fill="#EBEBEB"/>
<path d="M259.205 245.672H247.241V245.827H259.205V245.672Z" fill="#EBEBEB"/>
<path d="M59.6323 246.72H32.7064V246.876H59.6323V246.72Z" fill="#EBEBEB"/>
<path d="M69.1319 246.72H65.187V246.876H69.1319V246.72Z" fill="#EBEBEB"/>
<path d="M140.362 249.356H81.9621V249.511H140.362V249.356Z" fill="#EBEBEB"/>
<path d="M147.756 213.556H27.3774C26.4339 213.555 25.5293 213.179 24.8625 212.51C24.1957 211.842 23.8211 210.935 23.8211 209.99V40.5359C23.8289 39.596 24.2069 38.6973 24.8729 38.0351C25.5389 37.373 26.439 37.0009 27.3774 37H147.756C148.7 37 149.606 37.3757 150.273 38.0443C150.941 38.713 151.316 39.6199 151.316 40.5655V210.005C151.312 210.948 150.935 211.851 150.268 212.517C149.601 213.182 148.698 213.556 147.756 213.556ZM27.3774 37.1334C26.4751 37.1344 25.6101 37.4941 24.9724 38.1335C24.3347 38.7728 23.9765 39.6396 23.9765 40.5433V210.005C23.9765 210.909 24.3347 211.776 24.9724 212.415C25.6101 213.054 26.4751 213.414 27.3774 213.415H147.756C148.659 213.414 149.524 213.055 150.162 212.415C150.801 211.776 151.16 210.909 151.161 210.005V40.5359C151.158 39.6331 150.798 38.7683 150.16 38.1306C149.522 37.493 148.657 37.1344 147.756 37.1334H27.3774Z" fill="#EBEBEB"/>
<path d="M282.6 213.556H162.218C161.275 213.554 160.37 213.178 159.703 212.51C159.036 211.841 158.66 210.936 158.658 209.99V40.5359C158.669 39.5963 159.048 38.6987 159.714 38.037C160.381 37.3754 161.28 37.0029 162.218 37H282.6C283.54 37 284.441 37.3715 285.107 38.0338C285.774 38.6961 286.153 39.5954 286.161 40.5359V210.005C286.157 210.948 285.78 211.851 285.113 212.517C284.445 213.182 283.542 213.556 282.6 213.556ZM162.218 37.1334C161.316 37.1354 160.451 37.4953 159.813 38.1343C159.175 38.7734 158.816 39.6395 158.814 40.5433V210.005C158.816 210.909 159.175 211.775 159.813 212.414C160.451 213.053 161.316 213.413 162.218 213.415H282.6C283.502 213.413 284.367 213.053 285.004 212.414C285.642 211.775 286 210.909 286.001 210.005V40.5359C286 39.6325 285.642 38.7663 285.004 38.1271C284.367 37.488 283.502 37.128 282.6 37.126L162.218 37.1334Z" fill="#EBEBEB"/>
<path d="M53.2265 218.586C53.2265 218.337 54.0703 193.812 58.0374 189.932C61.9083 186.188 66.3565 189.791 66.5489 189.932L66.9486 189.454C66.8967 189.417 61.8787 185.314 57.597 189.454C53.4338 193.505 52.6085 217.511 52.6085 218.53L53.2265 218.586Z" fill="#E0E0E0"/>
<path d="M52.8934 223.4C52.8934 223.111 55.6097 193.961 44.9814 181.741L44.5078 182.152C54.9621 194.168 52.2791 223.048 52.2791 223.363L52.8934 223.4Z" fill="#E0E0E0"/>
<path d="M53.2857 220.32L53.9074 220.279C53.9074 219.946 51.8313 187.137 59.6249 179.954L59.2067 179.495C51.1689 186.87 53.1895 218.952 53.2857 220.32Z" fill="#E0E0E0"/>
<path d="M52.2791 220.302H52.9045C52.9045 219.397 52.6455 198.145 46.6134 194.702C46.0402 194.334 45.3876 194.108 44.7098 194.044C44.0321 193.979 43.3488 194.078 42.7166 194.331C39.0678 195.84 37.2619 202.341 37.1879 202.615L37.8096 202.785C37.8096 202.715 39.6118 196.303 42.972 194.909C43.5182 194.697 44.1069 194.617 44.6898 194.677C45.2727 194.737 45.8331 194.935 46.3248 195.254C52.0127 198.501 52.2791 220.083 52.2791 220.302Z" fill="#E0E0E0"/>
<path d="M54.6105 220.316L55.236 220.279C55.236 220.116 54.3256 203.482 58.8071 197.626C59.8914 196.214 61.0941 195.528 62.3412 195.591C65.2795 195.795 67.7405 200.098 67.7664 200.143L68.3104 199.835C68.2031 199.642 65.6607 195.198 62.3893 194.965C60.9313 194.861 59.5657 195.591 58.3445 197.218C53.6891 203.289 54.5735 219.623 54.6105 220.316Z" fill="#E0E0E0"/>
<path d="M53.615 222.574C53.7335 220.965 56.546 182.99 51.6019 176.303L51.1023 176.674C55.9131 183.182 53.0229 222.144 52.9711 222.536L53.615 222.574Z" fill="#E0E0E0"/>
<path d="M41.3585 198.145C41.3585 198.145 44.319 199.235 43.4419 201.822C42.5649 204.409 33.1911 208.652 33.1911 208.652C33.1911 208.652 29.2647 205.05 32.8692 199.194C36.4736 193.338 41.2771 196.296 41.3585 198.145Z" fill="#EBEBEB"/>
<path d="M54.2368 193.223C54.2368 193.223 51.1209 193.093 50.9062 195.817C50.6916 198.542 57.7635 206.077 57.7635 206.077C57.7635 206.077 62.752 204.268 61.6973 197.467C60.6426 190.666 55.0287 191.551 54.2368 193.223Z" fill="#EBEBEB"/>
<path d="M56.9124 180.199C56.9124 180.199 54.8104 179.973 54.9806 178.687C55.1509 177.401 63.1591 174.106 67.8848 179.428C67.8848 179.428 64.8614 184.635 60.4835 184.702C56.1056 184.769 56.9124 180.199 56.9124 180.199Z" fill="#EBEBEB"/>
<path d="M52.9897 177.071C52.9897 177.071 54.8992 177.99 55.4358 176.815C55.9724 175.64 50.9173 168.587 44.0822 170.614C44.0822 170.614 43.9009 176.641 47.5793 179.013C51.2578 181.385 52.9897 177.071 52.9897 177.071Z" fill="#EBEBEB"/>
<path d="M62.9666 197.1C62.9666 197.1 61.5123 195.929 63.0851 195.358C64.6578 194.787 72.3367 194.946 72.4366 202.578C72.4366 202.578 63.4847 204.06 62.3745 201.158C61.2643 198.256 62.9666 197.1 62.9666 197.1Z" fill="#EBEBEB"/>
<path d="M44.6928 179.98C44.6928 179.98 46.1472 178.805 44.5818 178.234C43.0164 177.664 35.3301 177.827 35.2302 185.451C35.2302 185.451 44.1895 186.933 45.2923 184.039C46.3951 181.144 44.6928 179.98 44.6928 179.98Z" fill="#EBEBEB"/>
<path d="M49.4259 186.129C49.4259 186.129 49.5555 184.706 48.4046 185.262C47.2537 185.818 43.2459 190.158 47.398 194.264C47.398 194.264 53.0119 190.113 51.9868 187.964C50.9617 185.814 49.4259 186.129 49.4259 186.129Z" fill="#EBEBEB"/>
<path d="M64.2582 188.171C64.2582 188.171 63.3848 187.037 64.6541 186.892C65.9235 186.748 71.6262 188.271 70.2976 193.972C70.2976 193.972 63.3589 193.449 63.0592 191.081C62.7594 188.712 64.2582 188.171 64.2582 188.171Z" fill="#EBEBEB"/>
<path d="M40.8034 241.443H64.6171L67.1854 215.331H38.2352L40.8034 241.443Z" fill="#F0F0F0"/>
<path d="M68.4658 212.455H36.9695V218.219H68.4658V212.455Z" fill="#E6E6E6"/>
<path d="M258.232 218.586C258.232 218.337 257.395 193.812 253.421 189.932C249.55 186.188 245.098 189.791 244.909 189.932L244.502 189.454C244.558 189.417 249.572 185.314 253.854 189.454C258.017 193.505 258.842 217.511 258.842 218.53L258.232 218.586Z" fill="#E0E0E0"/>
<path d="M258.572 223.4C258.572 223.111 255.856 193.961 266.484 181.741L266.95 182.152C256.496 194.168 259.179 223.048 259.179 223.363L258.572 223.4Z" fill="#E0E0E0"/>
<path d="M258.18 220.32L257.558 220.279C257.558 219.946 259.638 187.137 251.841 179.954L252.263 179.495C260.282 186.87 258.272 218.952 258.18 220.32Z" fill="#E0E0E0"/>
<path d="M259.198 220.302H258.572C258.572 219.397 258.827 198.145 264.863 194.702C265.438 194.334 266.092 194.108 266.771 194.044C267.45 193.979 268.134 194.078 268.767 194.331C272.413 195.84 274.222 202.341 274.296 202.615L273.675 202.785C273.675 202.715 271.872 196.303 268.494 194.909C267.947 194.696 267.357 194.616 266.774 194.676C266.19 194.736 265.629 194.934 265.137 195.254C259.445 198.501 259.198 220.083 259.198 220.302Z" fill="#E0E0E0"/>
<path d="M256.848 220.316L256.222 220.279C256.222 220.116 257.133 203.482 252.651 197.626C251.567 196.203 250.383 195.528 249.139 195.614C246.205 195.821 243.744 200.124 243.718 200.165L243.174 199.861C243.281 199.668 245.823 195.221 249.095 194.991C250.553 194.883 251.918 195.614 253.14 197.244C257.769 203.289 256.888 219.623 256.848 220.316Z" fill="#E0E0E0"/>
<path d="M257.832 222.574C257.706 220.965 254.901 182.99 259.845 176.303L260.345 176.674C255.534 183.182 258.424 222.144 258.472 222.536L257.832 222.574Z" fill="#E0E0E0"/>
<path d="M270.107 198.145C270.107 198.145 267.147 199.235 268.024 201.822C268.901 204.409 278.271 208.652 278.271 208.652C278.271 208.652 282.201 205.05 278.589 199.194C274.977 193.338 270.181 196.296 270.107 198.145Z" fill="#EBEBEB"/>
<path d="M257.221 193.223C257.221 193.223 260.374 193.093 260.552 195.817C260.73 198.542 253.695 206.077 253.695 206.077C253.695 206.077 248.706 204.268 249.768 197.467C250.83 190.666 256.433 191.551 257.221 193.223Z" fill="#EBEBEB"/>
<path d="M254.553 180.199C254.553 180.199 256.652 179.973 256.485 178.687C256.318 177.401 248.307 174.106 243.581 179.428C243.581 179.428 246.604 184.635 250.982 184.702C255.36 184.769 254.553 180.199 254.553 180.199Z" fill="#EBEBEB"/>
<path d="M258.469 177.071C258.469 177.071 256.566 177.99 256.03 176.815C255.493 175.64 260.548 168.587 267.38 170.614C267.38 170.614 267.561 176.641 263.883 179.013C260.204 181.385 258.469 177.071 258.469 177.071Z" fill="#EBEBEB"/>
<path d="M248.51 197.1C248.51 197.1 249.964 195.929 248.392 195.358C246.819 194.787 239.14 194.946 239.04 202.578C239.04 202.578 247.992 204.06 249.102 201.158C250.212 198.256 248.51 197.1 248.51 197.1Z" fill="#EBEBEB"/>
<path d="M266.769 179.98C266.769 179.98 265.318 178.805 266.884 178.234C268.449 177.664 276.135 177.827 276.235 185.451C276.235 185.451 267.276 186.933 266.173 184.039C265.071 181.144 266.769 179.98 266.769 179.98Z" fill="#EBEBEB"/>
<path d="M262.032 186.129C262.032 186.129 261.906 184.706 263.054 185.262C264.201 185.818 268.235 190.158 264.064 194.264C264.064 194.264 258.454 190.113 259.475 187.964C260.496 185.814 262.032 186.129 262.032 186.129Z" fill="#EBEBEB"/>
<path d="M247.207 188.171C247.207 188.171 248.081 187.037 246.808 186.892C245.535 186.748 239.839 188.271 241.198 193.972C241.198 193.972 248.136 193.449 248.436 191.081C248.736 188.712 247.207 188.171 247.207 188.171Z" fill="#EBEBEB"/>
<path d="M270.655 241.443H246.845L244.276 215.331H273.23L270.655 241.443Z" fill="#F0F0F0"/>
<path d="M274.503 212.448H243.007V218.211H274.503V212.448Z" fill="#E6E6E6"/>
<path d="M148.211 82.4362H84.7968V210.146H148.211V82.4362Z" fill="#FAFAFA"/>
<path d="M149.673 80.7017H83.3314V86.9691H149.673V80.7017Z" fill="#F0F0F0"/>
<path d="M149.673 87.6622H83.3314V90.7978H149.673V87.6622Z" fill="#F0F0F0"/>
<path d="M149.673 92.3137H83.3314V95.4492H149.673V92.3137Z" fill="#F0F0F0"/>
<path d="M149.673 96.9651H83.3314V100.101H149.673V96.9651Z" fill="#F0F0F0"/>
<path d="M149.673 101.617H83.3314V104.752H149.673V101.617Z" fill="#F0F0F0"/>
<path d="M149.673 106.261H83.3314V109.396H149.673V106.261Z" fill="#F0F0F0"/>
<path d="M149.673 110.912H83.3314V114.048H149.673V110.912Z" fill="#F0F0F0"/>
<path d="M149.673 115.564H83.3314V118.699H149.673V115.564Z" fill="#F0F0F0"/>
<path d="M149.673 120.215H83.3314V123.351H149.673V120.215Z" fill="#F0F0F0"/>
<path d="M149.673 124.867H83.3314V128.002H149.673V124.867Z" fill="#F0F0F0"/>
<path d="M149.673 129.518H83.3314V132.654H149.673V129.518Z" fill="#F0F0F0"/>
<path d="M149.673 134.166H83.3314V137.301H149.673V134.166Z" fill="#F0F0F0"/>
<path d="M149.673 138.817H83.3314V141.953H149.673V138.817Z" fill="#F0F0F0"/>
<path d="M149.673 143.469H83.3314V146.604H149.673V143.469Z" fill="#F0F0F0"/>
<path d="M149.673 148.12H83.3314V151.256H149.673V148.12Z" fill="#F0F0F0"/>
<path d="M149.673 152.772H83.3314V155.907H149.673V152.772Z" fill="#F0F0F0"/>
<path d="M149.673 157.416H83.3314V160.551H149.673V157.416Z" fill="#F0F0F0"/>
<path d="M149.673 162.067H83.3314V165.203H149.673V162.067Z" fill="#F0F0F0"/>
<path d="M149.673 166.719H83.3314V169.854H149.673V166.719Z" fill="#F0F0F0"/>
<path d="M149.673 171.37H83.3314V174.506H149.673V171.37Z" fill="#F0F0F0"/>
<path d="M149.673 176.022H83.3314V179.157H149.673V176.022Z" fill="#F0F0F0"/>
<path d="M149.673 180.673H83.3314V183.809H149.673V180.673Z" fill="#F0F0F0"/>
<path d="M149.673 185.321H83.3314V188.457H149.673V185.321Z" fill="#F0F0F0"/>
<path d="M149.673 189.972H83.3314V193.108H149.673V189.972Z" fill="#F0F0F0"/>
<path d="M149.673 194.624H83.3314V197.76H149.673V194.624Z" fill="#F0F0F0"/>
<path d="M149.673 199.275H83.3314V202.411H149.673V199.275Z" fill="#F0F0F0"/>
<path d="M149.673 203.927H83.3314V207.062H149.673V203.927Z" fill="#F0F0F0"/>
<path d="M149.673 208.571H83.3314V211.707H149.673V208.571Z" fill="#F0F0F0"/>
<path d="M226.913 82.4362H163.499V210.146H226.913V82.4362Z" fill="#FAFAFA"/>
<path d="M228.375 80.7017H162.033V86.9691H228.375V80.7017Z" fill="#F0F0F0"/>
<path d="M228.375 87.6622H162.033V88.2367H228.375V87.6622Z" fill="#F0F0F0"/>
<path d="M228.375 88.9742H162.033V89.5487H228.375V88.9742Z" fill="#F0F0F0"/>
<path d="M228.375 90.2789H162.033V90.8534H228.375V90.2789Z" fill="#F0F0F0"/>
<path d="M228.375 91.5872H162.033V92.1617H228.375V91.5872Z" fill="#F0F0F0"/>
<path d="M228.375 92.8956H162.033V93.4701H228.375V92.8956Z" fill="#F0F0F0"/>
<path d="M228.375 94.2039H162.033V94.7784H228.375V94.2039Z" fill="#F0F0F0"/>
<path d="M228.375 95.5085H162.033V96.083H228.375V95.5085Z" fill="#F0F0F0"/>
<path d="M228.375 96.8206H162.033V97.3951H228.375V96.8206Z" fill="#F0F0F0"/>
<path d="M228.375 98.1326H162.033V98.7071H228.375V98.1326Z" fill="#F0F0F0"/>
<path d="M228.375 99.4373H162.033V100.012H228.375V99.4373Z" fill="#F0F0F0"/>
<path d="M228.375 100.749H162.033V101.324H228.375V100.749Z" fill="#F0F0F0"/>
<path d="M228.375 102.054H162.033V102.628H228.375V102.054Z" fill="#F0F0F0"/>
<path d="M228.375 103.366H162.033V103.941H228.375V103.366Z" fill="#F0F0F0"/>
<path d="M228.375 104.671H162.033V105.245H228.375V104.671Z" fill="#F0F0F0"/>
<path d="M228.375 105.979H162.033V106.553H228.375V105.979Z" fill="#F0F0F0"/>
<path d="M228.375 107.291H162.033V107.866H228.375V107.291Z" fill="#F0F0F0"/>
<path d="M228.375 108.596H162.033V109.17H228.375V108.596Z" fill="#F0F0F0"/>
<path d="M228.375 109.908H162.033V110.482H228.375V109.908Z" fill="#F0F0F0"/>
<path d="M164.841 65.7777C166.494 60.8143 163.816 55.4491 158.86 53.7941C153.904 52.1392 148.547 54.8212 146.895 59.7846C145.243 64.748 147.921 70.1133 152.876 71.7682C157.832 73.4232 163.189 70.7411 164.841 65.7777Z" fill="#F0F0F0"/>
<path d="M163.797 64.0701C164.508 59.6795 161.531 55.5425 157.147 54.8298C152.764 54.1171 148.633 57.0986 147.921 61.4892C147.21 65.8798 150.187 70.0168 154.571 70.7295C158.954 71.4422 163.085 68.4607 163.797 64.0701Z" fill="#FAFAFA"/>
<path d="M155.472 57.2478V62.8815L151.753 60.7689" fill="#F0F0F0"/>
<path d="M155.472 57.2478V62.8815L151.753 60.7689" stroke="#E0E0E0" stroke-width="2" stroke-linecap="round" stroke-linejoin="round"/>
<path d="M155.853 269.615C222.608 269.615 276.724 266.45 276.724 262.547C276.724 258.643 222.608 255.479 155.853 255.479C89.098 255.479 34.9823 258.643 34.9823 262.547C34.9823 266.45 89.098 269.615 155.853 269.615Z" fill="#F5F5F5"/>
<path d="M273.416 99H158.989C157.726 99 156.702 100.02 156.702 101.278V225.722C156.702 226.98 157.726 228 158.989 228H273.416C274.679 228 275.702 226.98 275.702 225.722V101.278C275.702 100.02 274.679 99 273.416 99Z" fill="#CCCCCC"/>
<path d="M269.435 96H155.969C154.717 96 153.702 97.0198 153.702 98.2777V222.722C153.702 223.98 154.717 225 155.969 225H269.435C270.687 225 271.702 223.98 271.702 222.722V98.2777C271.702 97.0198 270.687 96 269.435 96Z" fill="#407BFF"/>
<path d="M269.435 96H155.969C154.717 96 153.702 97.0198 153.702 98.2777V222.722C153.702 223.98 154.717 225 155.969 225H269.435C270.687 225 271.702 223.98 271.702 222.722V98.2777C271.702 97.0198 270.687 96 269.435 96Z" fill="white"/>
<path d="M117.439 96H59.9655C58.7157 96 57.7025 97.0172 57.7025 98.2719V203.728C57.7025 204.983 58.7157 206 59.9655 206H117.439C118.689 206 119.702 204.983 119.702 203.728V98.2719C119.702 97.0172 118.689 96 117.439 96Z" fill="#CCCCCC"/>
<path d="M114.403 92H56.002C54.732 92 53.7025 93.0172 53.7025 94.2719V199.728C53.7025 200.983 54.732 202 56.002 202H114.403C115.673 202 116.702 200.983 116.702 199.728V94.2719C116.702 93.0172 115.673 92 114.403 92Z" fill="#407BFF"/>
<path d="M114.403 92H56.002C54.732 92 53.7025 93.0172 53.7025 94.2719V199.728C53.7025 200.983 54.732 202 56.002 202H114.403C115.673 202 116.702 200.983 116.702 199.728V94.2719C116.702 93.0172 115.673 92 114.403 92Z" fill="white"/>
<path d="M270.293 60H56.1117C54.7811 60 53.7025 61.0383 53.7025 62.319V71.681C53.7025 72.9617 54.7811 74 56.1117 74H270.293C271.624 74 272.702 72.9617 272.702 71.681V62.319C272.702 61.0383 271.624 60 270.293 60Z" fill="#E6E6E6"/>
<path opacity="0.6" d="M250.702 67.0357C250.695 67.6275 250.513 68.204 250.179 68.6926C249.845 69.1812 249.375 69.5602 248.826 69.7818C248.277 70.0034 247.675 70.0577 247.095 69.9379C246.516 69.8182 245.985 69.5297 245.569 69.1087C245.153 68.6878 244.87 68.1532 244.758 67.5723C244.645 66.9913 244.706 66.39 244.934 65.8439C245.162 65.2978 245.547 64.8313 246.039 64.5032C246.532 64.1751 247.11 64 247.702 64C248.099 64 248.492 64.0787 248.859 64.2317C249.225 64.3847 249.557 64.6089 249.836 64.8913C250.115 65.1736 250.336 65.5086 250.484 65.8767C250.633 66.2448 250.707 66.6388 250.702 67.0357Z" fill="white"/>
<path opacity="0.6" d="M258.702 67.0357C258.696 67.6275 258.545 68.204 258.267 68.6926C257.988 69.1812 257.596 69.5602 257.139 69.7818C256.681 70.0034 256.18 70.0577 255.697 69.9379C255.214 69.8182 254.771 69.5297 254.424 69.1087C254.078 68.6878 253.842 68.1532 253.748 67.5723C253.654 66.9913 253.705 66.39 253.896 65.8439C254.086 65.2978 254.406 64.8313 254.816 64.5032C255.227 64.1751 255.709 64 256.202 64C256.533 63.9994 256.861 64.0778 257.166 64.2306C257.472 64.3835 257.749 64.6076 257.982 64.8901C258.214 65.1726 258.398 65.5077 258.521 65.8761C258.645 66.2444 258.707 66.6386 258.702 67.0357Z" fill="white"/>
<path opacity="0.6" d="M267.702 67.0318C267.696 67.6248 267.514 68.2026 267.18 68.6922C266.845 69.1819 266.373 69.5614 265.823 69.7829C265.273 70.0044 264.669 70.0579 264.089 69.9366C263.509 69.8154 262.977 69.5248 262.562 69.1016C262.146 68.6785 261.866 68.1417 261.755 67.5591C261.645 66.9765 261.709 66.3742 261.941 65.8283C262.172 65.2824 262.561 64.8174 263.056 64.492C263.552 64.1666 264.133 63.9954 264.726 64.0001C265.121 64.0027 265.511 64.0833 265.875 64.2372C266.238 64.3912 266.568 64.6155 266.844 64.8972C267.121 65.1789 267.339 65.5126 267.486 65.8789C267.634 66.2452 267.707 66.637 267.702 67.0318Z" fill="white"/>
<path opacity="0.6" d="M66.7025 63H58.7025V71H66.7025V63Z" fill="white"/>
<path d="M112.702 109H45.7025V122H112.702V109Z" fill="#D1D3D4"/>
<path d="M54.7025 113H49.7025V119H54.7025V113Z" fill="white"/>
<path d="M50.7025 116.011L51.6976 117L53.7025 115" stroke="#BCBEC0" stroke-width="1.5" stroke-linecap="round" stroke-linejoin="round"/>
<path d="M108.702 119H103.702V115.549H108.702V119ZM106.218 113C105.939 113 105.663 113.055 105.406 113.163C105.148 113.272 104.914 113.431 104.717 113.631C104.52 113.832 104.363 114.07 104.256 114.333C104.149 114.595 104.094 114.877 104.093 115.161H104.669C104.705 114.769 104.883 114.405 105.168 114.141C105.454 113.876 105.825 113.729 106.211 113.729C106.597 113.729 106.968 113.876 107.254 114.141C107.539 114.405 107.717 114.769 107.753 115.161H108.329C108.327 114.59 108.104 114.042 107.709 113.637C107.314 113.233 106.778 113.004 106.218 113Z" fill="white"/>
<path d="M102.702 133H35.7025V146H102.702V133Z" fill="#D1D3D4"/>
<path d="M44.7025 137H39.7025V142H44.7025V137Z" fill="white"/>
<path d="M98.7025 139H93.7025V143H98.7025V139Z" fill="white"/>
<path d="M98.7025 139H98.0199C98.0199 138.397 97.8284 137.819 97.4876 137.393C97.1467 136.967 96.6845 136.728 96.2025 136.728C95.7204 136.728 95.2582 136.967 94.9173 137.393C94.5765 137.819 94.385 138.397 94.385 139H93.7025C93.7284 138.193 94.0029 137.431 94.4685 136.871C94.9342 136.312 95.5548 136 96.2004 136C96.8461 136 97.4667 136.312 97.9323 136.871C98.3979 137.431 98.6725 138.193 98.6984 139H98.7025Z" fill="white"/>
<path d="M112.702 158H45.7025V171H112.702V158Z" fill="#D1D3D4"/>
<path d="M55.7025 162H49.7025V167H55.7025V162Z" fill="white"/>
<path d="M50.7025 164.511L51.6988 166L53.7025 163" stroke="#BCBEC0" stroke-width="1.5" stroke-linecap="round" stroke-linejoin="round"/>
<path d="M109.702 164H103.702V168H109.702V164Z" fill="white"/>
<path d="M108.7 164H108.158C108.175 163.73 108.153 163.457 108.094 163.199C108.034 162.941 107.938 162.702 107.812 162.496C107.685 162.291 107.53 162.123 107.356 162.002C107.182 161.881 106.992 161.811 106.798 161.794C106.604 161.778 106.41 161.816 106.227 161.906C106.044 161.996 105.875 162.136 105.731 162.319C105.588 162.501 105.472 162.722 105.39 162.968C105.308 163.214 105.263 163.481 105.256 163.752C105.25 163.835 105.25 163.918 105.256 164H104.708C104.688 163.629 104.722 163.257 104.806 162.904C104.891 162.551 105.025 162.226 105.201 161.947C105.377 161.668 105.591 161.441 105.831 161.279C106.071 161.117 106.331 161.023 106.597 161.004C106.863 160.984 107.129 161.039 107.379 161.165C107.63 161.291 107.86 161.486 108.055 161.738C108.251 161.989 108.409 162.293 108.52 162.632C108.631 162.97 108.692 163.336 108.7 163.707C108.703 163.806 108.703 163.905 108.7 164Z" fill="white"/>
<path d="M256.702 144H203.702V178H256.702V144Z" fill="#D1D3D4"/>
<path d="M254.702 151H205.702V177H254.702V151Z" fill="#2F2E41"/>
<path d="M245.702 154H209.702V156H245.702V154Z" fill="white"/>
<path d="M226.702 158H209.702V159H226.702V158Z" fill="white"/>
<path d="M231.702 161H209.702V162H231.702V161Z" fill="white"/>
<path d="M217.702 165H209.702V166H217.702V165Z" fill="white"/>
<path d="M214.702 168H209.702V169H214.702V168Z" fill="white"/>
<path d="M257.702 211.257V230.809C257.704 231.341 257.515 231.856 257.172 232.258C256.829 232.66 256.355 232.922 255.837 232.994C255.729 233.002 255.62 233.002 255.512 232.994H230.871C230.296 232.994 229.744 232.762 229.338 232.347C228.931 231.933 228.703 231.372 228.703 230.786V211.257C228.698 210.92 228.774 210.588 228.923 210.287C229.099 209.914 229.376 209.599 229.72 209.378C230.065 209.158 230.464 209.041 230.871 209.041H240.538C240.993 209.037 241.435 208.888 241.802 208.615C242.169 208.343 242.444 207.96 242.587 207.52C242.731 207.078 243.008 206.692 243.379 206.419C243.75 206.146 244.196 206 244.654 206H249.788C250.247 205.998 250.694 206.144 251.066 206.418C251.438 206.691 251.716 207.077 251.859 207.52C252.003 207.963 252.28 208.348 252.651 208.621C253.022 208.894 253.469 209.041 253.926 209.041H255.505C255.79 209.037 256.074 209.091 256.339 209.199C256.604 209.307 256.845 209.468 257.049 209.671C257.253 209.875 257.416 210.117 257.528 210.384C257.64 210.652 257.7 210.939 257.702 211.23V211.257Z" fill="#2F2E41"/>
<path opacity="0.3" d="M255.702 212.83V233H230.857C230.286 233 229.738 232.775 229.334 232.373C228.93 231.972 228.703 231.428 228.703 230.86V211.939C228.698 211.613 228.773 211.291 228.921 211H253.845C254.333 211.005 254.801 211.199 255.148 211.54C255.495 211.882 255.694 212.345 255.702 212.83Z" fill="white"/>
<path d="M199.702 184V207.424L194.991 212H177.702V184H199.702Z" fill="#2F2E41"/>
<path opacity="0.4" d="M199.702 184V207.424L194.991 212H177.702V184H199.702Z" fill="white"/>
<path d="M199.702 207H194.702V212L199.702 207Z" fill="#2F2E41"/>
<path d="M196.702 188H180.702V189H196.702V188Z" fill="#2F2E41"/>
<path d="M194.702 191H180.702V192H194.702V191Z" fill="#2F2E41"/>
<path d="M196.702 194H180.702V195H196.702V194Z" fill="#2F2E41"/>
<path d="M184.702 199H180.702V200H184.702V199Z" fill="#2F2E41"/>
<path d="M213.702 93H169.702V129H213.702V93Z" fill="#2F2E41"/>
<path opacity="0.6" d="M169.702 93V129H213.702V93H169.702ZM212.261 127.579H171.144V94.4205H212.268L212.261 127.579Z" fill="white"/>
<path opacity="0.3" d="M170.702 118.12L183.577 109L193.147 118.12L202.717 112.791L212.702 118.781V128H170.702V118.12Z" fill="white"/>
<path opacity="0.6" d="M200.702 102.004C200.702 102.597 200.525 103.177 200.195 103.67C199.865 104.163 199.396 104.547 198.847 104.773C198.299 104.999 197.695 105.058 197.114 104.942C196.532 104.825 195.998 104.539 195.579 104.119C195.16 103.699 194.874 103.164 194.759 102.582C194.644 102 194.704 101.396 194.932 100.849C195.16 100.301 195.545 99.8326 196.039 99.5036C196.533 99.1745 197.113 98.9993 197.706 99C198.1 99.0005 198.49 99.0786 198.854 99.2298C199.218 99.381 199.548 99.6024 199.826 99.8813C200.105 100.16 200.325 100.491 200.475 100.855C200.626 101.219 200.703 101.61 200.702 102.004Z" fill="white"/>
<path d="M192.702 89H190.702V91H192.702V89Z" fill="#D1D3D4"/>
<path d="M217.702 132H215.702V131.601H216.902V131H217.702V132Z" fill="#D1D3D4"/>
<path d="M167.702 132H166.702V131H167.104V131.601H167.702V132Z" fill="#D1D3D4"/>
<path d="M167.697 129H166.702V126.601H167.702L167.697 129ZM167.697 124.802H166.702V122.399H167.702L167.697 124.802ZM167.697 120.6H166.702V118.201H167.702L167.697 120.6ZM167.697 116.401H166.702V113.999H167.702L167.697 116.401ZM167.697 112.199H166.702V109.801H167.702L167.697 112.199ZM167.697 108.001H166.702V105.602H167.702L167.697 108.001ZM167.697 103.799H166.702V101.4H167.702L167.697 103.799ZM167.697 99.6005H166.702V97.202H167.702L167.697 99.6005ZM167.697 95.4022H166.702V93H167.702L167.697 95.4022Z" fill="#D1D3D4"/>
<path d="M167.104 91H166.702V89H167.702V89.7981H167.104V91Z" fill="#D1D3D4"/>
<path d="M213.702 90H211.092V89H213.702V90ZM209.108 90H206.497V89H209.108V90ZM204.509 90H201.899V89H204.509V90ZM199.911 90H197.3V89H199.911V90ZM195.316 90H192.706V89H195.316V90ZM190.718 90H188.107V89H190.718V90ZM186.123 90H183.513V89H186.123V90ZM181.525 90H178.914V89H181.525V90ZM176.926 90H174.316V89H176.926V90ZM172.332 90H169.702V89H172.332V90Z" fill="#D1D3D4"/>
<path d="M217.702 91H216.902V89.7981H215.702V89H217.702V91Z" fill="#D1D3D4"/>
<path d="M217.702 129H216.702V126.598H217.702V129ZM217.702 124.798H216.702V122.4H217.702V124.798ZM217.702 120.597H216.702V118.195H217.702V120.597ZM217.702 116.395H216.702V113.997H217.702V116.395ZM217.702 112.197H216.702V109.795H217.702V112.197ZM217.702 107.996H216.702V105.597H217.702V107.996ZM217.702 103.798H216.702V101.4H217.702V103.798ZM217.702 99.5999H216.702V97.1979H217.702V99.5999ZM217.702 95.3983H216.702V93H217.702V95.3983Z" fill="#D1D3D4"/>
<path d="M217.702 89H215.702V91H217.702V89Z" fill="#D1D3D4"/>
<path d="M217.702 131H215.702V133H217.702V131Z" fill="#D1D3D4"/>
<path d="M167.702 131H165.702V133H167.702V131Z" fill="#D1D3D4"/>
<path d="M167.702 89H165.702V91H167.702V89Z" fill="#D1D3D4"/>
<path d="M192.702 131H190.702V133H192.702V131Z" fill="#D1D3D4"/>
<path d="M217.702 110H215.702V112H217.702V110Z" fill="#D1D3D4"/>
<path d="M167.702 110H165.702V112H167.702V110Z" fill="#D1D3D4"/>
<path d="M108.974 150L102.166 155.744C102.166 155.744 100.503 155.78 99.9793 156.348C99.4554 156.917 97.4203 161.173 97.7354 161.749C98.0506 162.326 101.373 163.474 102.083 162.788C102.793 162.101 104.004 158.172 104.004 157.754L112.702 151.686L108.974 150Z" fill="#AA6B4F"/>
<path d="M105.702 152.718L107.155 156C107.155 156 116.105 151.7 118.047 149.17C118.541 148.535 119.227 147.48 119.968 146.297C121.191 144.341 122.56 141.99 123.515 140.338C124.241 139.106 124.702 138.261 124.702 138.261L119.619 130C118.53 130.882 115.124 145.001 114.536 145.771C113.948 146.541 105.702 152.718 105.702 152.718Z" fill="#0071F2"/>
<path opacity="0.1" d="M120.071 146.527C121.319 144.599 122.714 142.275 123.687 140.645L121.285 134.714C121.285 134.714 120.001 141.519 120.071 146.527Z" fill="black"/>
<path d="M161.702 119.583L168.474 114.539C168.474 114.539 169.022 113.012 169.712 112.677C170.402 112.343 174.95 111.717 175.398 112.144C175.847 112.571 175.862 116 175.015 116.482C174.167 116.963 170.153 116.956 169.773 116.813L162.37 122L161.702 119.583Z" fill="#AA6B4F"/>
<path d="M106.702 259.297L110.624 260L112.239 254.577L113.702 249.601L109.179 248L107.868 253.976L106.702 259.297Z" fill="#AA6B4F"/>
<path opacity="0.2" d="M107.702 254.388L112.188 255L113.702 249.718L109.068 248L107.702 254.388Z" fill="black"/>
<path d="M133 259H137.57L138.319 253.679L139 248.716L133.57 248L133.272 253.838L133 259Z" fill="#AA6B4F"/>
<path opacity="0.2" d="M133.702 255L138.108 254.78L138.702 248.91L133.962 248L133.702 255Z" fill="black"/>
<path d="M107.702 249.637L114.188 250.745C120.729 234.602 125.376 221.118 128.636 209.934C130.411 203.892 131.809 198.527 132.872 193.75L132.596 211.334V251H139.119C155.156 175.685 143.803 158.174 143.803 158.174L124.641 155C123.881 158.515 123.347 162.074 123.042 165.656L122.173 171.938L114.684 210.281L107.702 249.637Z" fill="#2F2E41"/>
<path opacity="0.2" d="M127.702 213C127.979 211.995 128.279 211.016 128.531 210.055C130.001 204.589 130.977 199.687 132.126 195.277L132.702 187.179C132.702 187.179 128.951 178.268 130.353 172C130.226 172.368 127.743 179.185 128.719 186.013C128.948 195.023 128.608 204.04 127.702 213Z" fill="black"/>
<path d="M127.34 122.01C127.392 122.045 127.449 122.075 127.508 122.099C128.313 122.544 129.204 122.83 130.128 122.94C132.815 123.194 134.544 122.634 135.551 121.368C136.951 119.483 136.944 116.449 136.225 112.877C135.99 111.449 135.518 110.066 134.825 108.781V108.713C134.801 108.663 134.773 108.615 134.739 108.57C134.316 107.848 133.711 107.239 132.977 106.796C132.244 106.354 131.406 106.094 130.54 106.039C129.786 105.975 129.026 105.99 128.275 106.082C120.884 106.916 121.127 118.688 127.34 122.01Z" fill="#AF7F6C"/>
<path d="M127.702 122.076C128.41 122.556 129.187 122.849 129.987 122.937C132.33 123.23 133.834 122.484 134.702 121C133.389 121.648 131.944 121.737 130.587 121.251C130.089 121.1 129.569 121.096 129.069 121.239C128.569 121.382 128.101 121.668 127.702 122.076Z" fill="#2F2E41"/>
<path d="M127.113 127.945C126.459 129.916 129.067 131 129.067 131C133.657 129.589 134.702 127.37 134.702 127.37C131.214 125.159 132.833 120 132.833 120L132.049 120.284L126.702 120.783C126.702 120.783 127.885 123.637 128.014 124.272C128.657 127.64 127.113 127.945 127.113 127.945Z" fill="#EBB376"/>
<path d="M134.595 108.391C134.595 108.391 135.657 113.313 131.116 116.062C131.116 116.062 129.736 121.491 126.69 121.953C122.547 122.558 118.117 117.269 118.766 111.194C119.618 103.329 131.374 101.207 134.595 108.391Z" fill="#263238"/>
<path d="M133.617 114.783C133.517 113.977 132.724 112.714 131.543 113.058C130.362 113.402 130.039 116.703 133.183 116.998C133.632 117.042 133.829 116.464 133.617 114.783Z" fill="#B97A59"/>
<path d="M137.334 259H132.994C132.903 258.998 132.815 259.028 132.744 259.083C132.673 259.139 132.625 259.217 132.607 259.304L131.717 263.22C131.68 263.389 131.713 263.564 131.809 263.709C131.904 263.854 132.055 263.956 132.227 263.993C132.275 264 132.324 264 132.372 263.993C134.148 263.993 134.292 263.862 136.517 263.862C137.888 263.862 142.029 264 143.924 264C145.819 264 146.065 262.176 145.291 262.006C141.812 261.265 139.197 260.225 138.083 259.268C137.876 259.092 137.609 258.996 137.334 259Z" fill="#0071F2"/>
<path d="M111.329 259H106.99C106.901 259.001 106.814 259.031 106.744 259.086C106.674 259.141 106.626 259.218 106.607 259.304L105.718 263.22C105.68 263.388 105.712 263.564 105.807 263.709C105.902 263.854 106.052 263.956 106.224 263.993C106.272 264 106.321 264 106.369 263.993C108.147 263.993 108.288 263.862 110.516 263.862C111.886 263.862 115.997 264 117.916 264C119.836 264 120.06 262.176 119.287 262.006C115.809 261.265 113.195 260.225 112.074 259.268C111.869 259.09 111.603 258.995 111.329 259Z" fill="#0071F2"/>
<path d="M143.644 158C143.644 158 147.295 135.934 141.036 126.042C141.036 126.042 128.486 125.27 119.702 130.317C119.702 130.317 123.342 140.142 123.886 158H143.644Z" fill="#0071F2"/>
<path opacity="0.1" d="M144.688 141.282C144.958 138.276 144.067 135.385 143.948 132.839C142.389 131.459 141.01 129.888 139.844 128.162C139.844 128.162 138.712 137.123 144.688 141.282Z" fill="black"/>
<path d="M139.894 125.93C139.894 125.93 151.884 124.434 153.69 123.635C154.82 123.13 163.637 117 163.637 117L165.702 120.31C165.702 120.31 156.687 128.039 155.158 128.961C151.582 131.05 143.545 134 143.545 134C143.545 134 138.692 130.361 139.894 125.93Z" fill="#0071F2"/>
<path d="M134.305 111.844C134.305 111.844 139.496 106.734 134.601 103.296C129.706 99.8587 124.786 104.346 124.786 104.346C124.786 104.346 113.075 107.128 115.565 114.791C118.056 122.454 119.685 123.103 115.977 127.03C112.27 130.958 108.487 136.801 112.274 140.522C116.06 144.243 129.306 140.419 133.339 134.801C137.372 129.182 130.246 117.112 134.305 111.844Z" fill="#2F2E41"/>
</svg>
